<svg width="101" height="101" viewBox="0 0 101 101" fill="none" xmlns="http://www.w3.org/2000/svg">
<g clip-path="url(#clip0_198_53994)">
<path d="M101 101H0V0H101V101ZM75.3281 22.418C73.0472 14.191 60.0652 10.4044 46.332 13.9609C32.5989 17.5178 23.3143 27.0717 25.5947 35.2988C26.432 38.3184 28.712 40.7384 31.9404 42.418C26.8506 46.6576 24.2694 51.8867 25.5947 56.668C26.4319 59.6873 28.7114 62.1076 31.9395 63.7871C26.85 68.0266 24.2695 73.256 25.5947 78.0371C27.8757 86.264 40.8577 90.0498 54.5908 86.4932C68.3242 82.9363 77.6087 73.3835 75.3281 65.1562C74.4909 62.1365 72.2111 59.7157 68.9824 58.0361C74.0721 53.7965 76.6535 48.5683 75.3281 43.7871C74.4909 40.7673 72.2111 38.3466 68.9824 36.667C74.0721 32.4274 76.6534 27.1992 75.3281 22.418Z" fill="white" fill-opacity="0.15"/>
</g>
<defs>
<clipPath id="clip0_198_53994">
<rect width="101" height="101" fill="white"/>
</clipPath>
</defs>
</svg>
