<svg width="678" height="576" viewBox="0 0 678 576" fill="none" xmlns="http://www.w3.org/2000/svg">
<g clip-path="url(#clip0_13580_442372)">
<path d="M125.98 573C85.3238 573 54.4358 563.76 33.3158 545.28C12.1958 526.272 1.63584 498.552 1.63584 462.12V113.64C1.63584 77.208 12.1958 49.752 33.3158 31.272C54.4358 12.264 85.3238 2.75998 125.98 2.75998H552.076C592.732 2.75998 623.62 12.264 644.74 31.272C665.86 49.752 676.42 77.208 676.42 113.64V169.08C676.42 179.64 671.14 184.92 660.58 184.92H354.076V153.24H324.772V208.68H565.54C601.444 208.68 628.9 218.184 647.908 237.192C666.916 256.2 676.42 283.656 676.42 319.56V462.12C676.42 498.552 665.86 526.272 644.74 545.28C623.62 563.76 592.732 573 552.076 573H125.98ZM354.076 422.52V359.16H324.772V422.52H354.076Z" fill="black"/>
</g>
<defs>
<clipPath id="clip0_13580_442372">
<rect width="678" height="576" fill="white"/>
</clipPath>
</defs>
</svg>
