<svg width="684" height="1038" viewBox="0 0 684 1038" fill="none" xmlns="http://www.w3.org/2000/svg">
<g clip-path="url(#clip0_13580_442666)">
<path d="M670.105 697.42C670.105 779.292 662.965 844.98 648.685 894.484C634.405 943.036 611.557 978.26 580.141 1000.16C549.677 1022.05 508.265 1033 455.905 1033H227.425C174.113 1033 131.749 1022.05 100.333 1000.16C69.8693 978.26 47.4973 943.036 33.2173 894.484C18.9373 844.98 12.2733 779.292 13.2253 697.42L16.0813 340.42C16.0813 251.884 28.4573 183.34 53.2093 134.788C77.9613 86.236 113.661 52.44 160.309 33.3999C206.957 14.36 267.409 4.83996 341.665 4.83996H662.965V319H341.665C321.673 319 307.393 322.332 298.825 328.996C290.257 335.66 285.973 346.608 285.973 361.84H435.913C499.697 361.84 547.773 371.36 580.141 390.4C613.461 409.44 636.785 442.284 650.113 488.932C663.441 535.58 670.105 605.076 670.105 697.42ZM341.665 668.86C321.673 668.86 307.393 671.24 298.825 676C290.257 679.808 285.973 686.948 285.973 697.42C285.973 707.892 290.257 715.508 298.825 720.268C307.393 724.076 321.673 725.98 341.665 725.98C361.657 725.98 375.937 724.076 384.505 720.268C393.073 715.508 397.357 707.892 397.357 697.42C397.357 686.948 393.073 679.808 384.505 676C375.937 671.24 361.657 668.86 341.665 668.86Z" fill="black"/>
</g>
<defs>
<clipPath id="clip0_13580_442666">
<rect width="684" height="1038" fill="white"/>
</clipPath>
</defs>
</svg>
