<svg width="684" height="1038" viewBox="0 0 684 1038" fill="none" xmlns="http://www.w3.org/2000/svg">
<g clip-path="url(#clip0_13580_442660)">
<path d="M304.537 718.84C325.481 718.84 339.761 717.412 347.377 714.556C355.945 710.748 360.229 705.036 360.229 697.42C360.229 689.804 355.945 684.568 347.377 681.712C339.761 677.904 325.481 676 304.537 676H20.3653V361.84H304.537C325.481 361.84 339.761 360.412 347.377 357.556C355.945 353.748 360.229 348.036 360.229 340.42C360.229 332.804 355.945 327.568 347.377 324.712C339.761 320.904 325.481 319 304.537 319H20.3653V4.83996H373.081C450.193 4.83996 509.693 13.408 551.581 30.544C594.421 46.7279 624.885 74.3359 642.973 113.368C661.061 151.448 670.105 205.712 670.105 276.16C670.105 335.184 665.345 381.356 655.825 414.676C646.305 447.044 630.597 470.368 608.701 484.648C586.805 497.976 555.865 504.64 515.881 504.64V533.2C555.865 533.2 586.805 540.34 608.701 554.62C630.597 567.948 646.305 591.272 655.825 624.592C665.345 656.96 670.105 702.656 670.105 761.68C670.105 832.128 661.061 886.868 642.973 925.9C624.885 963.98 594.421 991.588 551.581 1008.72C509.693 1024.91 450.193 1033 373.081 1033H20.3653V718.84H304.537Z" fill="black"/>
</g>
<defs>
<clipPath id="clip0_13580_442660">
<rect width="684" height="1038" fill="white"/>
</clipPath>
</defs>
</svg>
